<svg width="20" height="20" viewBox="0 0 20 20" fill="none" xmlns="http://www.w3.org/2000/svg">
<path d="M8.67774 16.6817H8.67032C8.62246 16.6807 8.5753 16.6701 8.53167 16.6504C8.48804 16.6308 8.44883 16.6025 8.41641 16.5673L1.71875 9.28444C1.66305 9.22389 1.63011 9.14588 1.62555 9.06373C1.62099 8.98158 1.6451 8.9004 1.69375 8.83405C1.74243 8.76772 1.8126 8.72033 1.89231 8.69996C1.97202 8.67959 2.05633 8.68749 2.13086 8.72233L8.26094 11.5926C8.3125 11.6169 8.37344 11.6051 8.41289 11.5641L17.7637 1.79108C17.8902 1.65866 18.0973 1.64421 18.241 1.75827C18.3848 1.87233 18.418 2.07702 18.3176 2.23054L9.01602 16.4798C9.00274 16.5005 8.98711 16.5192 8.96993 16.5368L8.92891 16.5778C8.86216 16.6442 8.77189 16.6815 8.67774 16.6817Z" fill="black"/>
</svg>
