<svg width="20" height="20" viewBox="0 0 20 20" fill="none" xmlns="http://www.w3.org/2000/svg">
<path d="M5.95441 5.95493C6.01245 5.89685 6.08137 5.85078 6.15722 5.81934C6.23308 5.78791 6.31438 5.77173 6.39649 5.77173C6.4786 5.77173 6.55991 5.78791 6.63576 5.81934C6.71162 5.85078 6.78054 5.89685 6.83858 5.95493L13.9219 13.0383C13.9816 13.0959 14.0293 13.1648 14.0621 13.2411C14.0949 13.3173 14.1121 13.3993 14.1129 13.4823C14.1137 13.5653 14.0979 13.6476 14.0665 13.7244C14.0351 13.8012 13.9887 13.871 13.9301 13.9298C13.8714 13.9885 13.8017 14.0349 13.7249 14.0664C13.6481 14.0978 13.5658 14.1137 13.4828 14.113C13.3998 14.1123 13.3178 14.0951 13.2415 14.0624C13.1652 14.0297 13.0963 13.9821 13.0386 13.9224L5.95524 6.83909C5.8382 6.72191 5.77246 6.56305 5.77246 6.39743C5.77246 6.2318 5.8382 6.07295 5.95524 5.95576L5.95441 5.95493Z" fill="#202020"/>
<path d="M13.4805 5.35596C13.6462 5.35596 13.8052 5.4218 13.9224 5.53902C14.0396 5.65623 14.1055 5.8152 14.1055 5.98096V13.481C14.1055 13.6467 14.0396 13.8057 13.9224 13.9229C13.8052 14.0401 13.6462 14.106 13.4805 14.106H5.98047C5.81471 14.106 5.65574 14.0401 5.53853 13.9229C5.42132 13.8057 5.35547 13.6467 5.35547 13.481C5.35547 13.3152 5.42132 13.1562 5.53853 13.039C5.65574 12.9218 5.81471 12.856 5.98047 12.856H12.8555V5.98096C12.8555 5.8152 12.9213 5.65623 13.0385 5.53902C13.1557 5.4218 13.3147 5.35596 13.4805 5.35596Z" fill="#202020"/>
</svg>
